# xmcd
#
# Track frame offsets:
#	150
#	11342
#	23179
#	37227
#	51868
#	65170
#	78970
#	99402
#	112084
#	125578
#	137618
#	147391
#
# Disc length: 2145 seconds
#
# Revision: 0
# Processed by: cddbd v1.5.2PL0 Copyright (c) Steve Scherf et al.
# Submitted via: audiograbber 1.83.01
#
DISCID=aa085f0c
DTITLE=The Blue Ridge Rangers - The Blue Ridge Rangers
DYEAR=1973
DGENRE=Country
TTITLE0=Blue Ridge Mountain Blues
TTITLE1=Somewhere Listening (For My Name)
TTITLE2=You're The Reason
TTITLE3=Jambalaya (On The Bayou)
TTITLE4=She Thinks I Still Care
TTITLE5=California Blues (Blue Yodel #4)
TTITLE6=Workin' On A Building
TTITLE7=Please Help Me, I'm Falling
TTITLE8=Have Thine Own Way, Lord
TTITLE9=I Ain't Never
TTITLE10=Hearts Of Stone
TTITLE11=Today I Started Loving You Again 
EXTD=
EXTT0=
EXTT1=
EXTT2=
EXTT3=
EXTT4=
EXTT5=
EXTT6=
EXTT7=
EXTT8=
EXTT9=
EXTT10=
EXTT11=
PLAYORDER=
